<svg xmlns="http://www.w3.org/2000/svg" width="980" height="620" viewBox="0 0 980 620" role="img" aria-label="Dashboard Mockup">
  <defs>
    <linearGradient id="bg" x1="0" y1="0" x2="1" y2="1">
      <stop offset="0" stop-color="#0B1220"/>
      <stop offset="1" stop-color="#111B32"/>
    </linearGradient>
    <linearGradient id="acc" x1="0" y1="0" x2="1" y2="0">
      <stop offset="0" stop-color="#7C3AED"/>
      <stop offset="1" stop-color="#06B6D4"/>
    </linearGradient>
    <filter id="card" x="-20%" y="-20%" width="140%" height="140%">
      <feDropShadow dx="0" dy="16" stdDeviation="16" flood-color="#000" flood-opacity=".35"/>
    </filter>
  </defs>
  <rect x="0" y="0" width="980" height="620" rx="28" fill="url(#bg)"/>
  <rect x="26" y="26" width="928" height="568" rx="22" fill="rgba(255,255,255,.06)" stroke="rgba(255,255,255,.08)"/>
  <!-- top bar -->
  <rect x="60" y="58" width="860" height="52" rx="14" fill="rgba(255,255,255,.06)"/>
  <rect x="82" y="74" width="160" height="20" rx="10" fill="rgba(255,255,255,.12)"/>
  <circle cx="874" cy="84" r="10" fill="url(#acc)"/>
  <circle cx="846" cy="84" r="10" fill="rgba(255,255,255,.14)"/>
  <circle cx="818" cy="84" r="10" fill="rgba(255,255,255,.10)"/>
  <!-- sidebar -->
  <rect x="60" y="126" width="190" height="438" rx="18" fill="rgba(255,255,255,.05)"/>
  <rect x="84" y="154" width="140" height="18" rx="9" fill="url(#acc)"/>
  <rect x="84" y="196" width="120" height="14" rx="7" fill="rgba(255,255,255,.10)"/>
  <rect x="84" y="226" width="132" height="14" rx="7" fill="rgba(255,255,255,.10)"/>
  <rect x="84" y="256" width="112" height="14" rx="7" fill="rgba(255,255,255,.10)"/>
  <rect x="84" y="286" width="148" height="14" rx="7" fill="rgba(255,255,255,.10)"/>
  <rect x="84" y="316" width="96" height="14" rx="7" fill="rgba(255,255,255,.10)"/>
  <!-- main cards -->
  <rect x="270" y="126" width="650" height="180" rx="18" fill="rgba(255,255,255,.06)" filter="url(#card)"/>
  <rect x="298" y="154" width="220" height="18" rx="9" fill="rgba(255,255,255,.16)"/>
  <rect x="298" y="184" width="360" height="12" rx="6" fill="rgba(255,255,255,.10)"/>
  <rect x="298" y="206" width="330" height="12" rx="6" fill="rgba(255,255,255,.10)"/>
  <rect x="298" y="240" width="110" height="34" rx="12" fill="url(#acc)"/>
  <rect x="428" y="240" width="110" height="34" rx="12" fill="rgba(255,255,255,.08)"/>
  <!-- grid -->
  <rect x="270" y="326" width="315" height="238" rx="18" fill="rgba(255,255,255,.05)"/>
  <rect x="605" y="326" width="315" height="238" rx="18" fill="rgba(255,255,255,.05)"/>
  <rect x="298" y="356" width="210" height="14" rx="7" fill="rgba(255,255,255,.14)"/>
  <rect x="298" y="386" width="250" height="12" rx="6" fill="rgba(255,255,255,.10)"/>
  <rect x="298" y="408" width="232" height="12" rx="6" fill="rgba(255,255,255,.10)"/>
  <rect x="298" y="444" width="260" height="86" rx="16" fill="rgba(255,255,255,.06)"/>
  <rect x="633" y="356" width="200" height="14" rx="7" fill="rgba(255,255,255,.14)"/>
  <rect x="633" y="388" width="250" height="12" rx="6" fill="rgba(255,255,255,.10)"/>
  <rect x="633" y="410" width="230" height="12" rx="6" fill="rgba(255,255,255,.10)"/>
  <rect x="633" y="444" width="260" height="16" rx="8" fill="url(#acc)"/>
  <rect x="633" y="472" width="240" height="16" rx="8" fill="rgba(255,255,255,.10)"/>
  <rect x="633" y="500" width="220" height="16" rx="8" fill="rgba(255,255,255,.10)"/>
</svg>
