<svg xmlns="http://www.w3.org/2000/svg" width="980" height="620" viewBox="0 0 980 620" role="img" aria-label="مطعم روّق">
  <defs>
    <linearGradient id="acc" x1="0" y1="0" x2="1" y2="1">
      <stop offset="0" stop-color="#EF4444"/>
      <stop offset="1" stop-color="#F59E0B"/>
    </linearGradient>
    <filter id="sh" x="-20%" y="-20%" width="140%" height="140%">
      <feDropShadow dx="0" dy="16" stdDeviation="16" flood-color="#000" flood-opacity=".35"/>
    </filter>
  </defs>
  <rect x="0" y="0" width="980" height="620" rx="28" fill="#0B1220"/>
  <rect x="38" y="38" width="904" height="544" rx="22" fill="rgba(255,255,255,.05)" stroke="rgba(255,255,255,.08)"/>
  <rect x="72" y="72" width="836" height="54" rx="16" fill="rgba(255,255,255,.06)"/>
  <circle cx="106" cy="99" r="10" fill="#EF4444"/>
  <circle cx="134" cy="99" r="10" fill="#F59E0B"/>
  <circle cx="162" cy="99" r="10" fill="rgba(255,255,255,.12)"/>
  <rect x="204" y="88" width="220" height="22" rx="11" fill="rgba(255,255,255,.12)"/>
  <rect x="72" y="148" width="520" height="370" rx="22" fill="rgba(255,255,255,.06)" filter="url(#sh)"/>
  <rect x="104" y="186" width="260" height="22" rx="11" fill="url(#acc)"/>
  <rect x="104" y="224" width="420" height="14" rx="7" fill="rgba(255,255,255,.10)"/>
  <rect x="104" y="248" width="392" height="14" rx="7" fill="rgba(255,255,255,.10)"/>
  <rect x="104" y="292" width="150" height="42" rx="14" fill="url(#acc)"/>
  <rect x="270" y="292" width="150" height="42" rx="14" fill="rgba(255,255,255,.08)"/>
  <rect x="104" y="360" width="460" height="120" rx="18" fill="rgba(255,255,255,.05)"/>
  <rect x="622" y="148" width="286" height="170" rx="22" fill="rgba(255,255,255,.05)"/>
  <rect x="622" y="334" width="286" height="184" rx="22" fill="rgba(255,255,255,.05)"/>
  <rect x="650" y="178" width="230" height="16" rx="8" fill="rgba(255,255,255,.14)"/>
  <rect x="650" y="206" width="200" height="12" rx="6" fill="rgba(255,255,255,.10)"/>
  <rect x="650" y="228" width="210" height="12" rx="6" fill="rgba(255,255,255,.10)"/>
  <rect x="650" y="364" width="220" height="16" rx="8" fill="rgba(255,255,255,.14)"/>
  <rect x="650" y="392" width="210" height="12" rx="6" fill="rgba(255,255,255,.10)"/>
  <rect x="650" y="414" width="230" height="12" rx="6" fill="rgba(255,255,255,.10)"/>
  <rect x="650" y="442" width="180" height="34" rx="12" fill="url(#acc)"/>
  <text x="906" y="570" text-anchor="end" font-family="Cairo, Arial, sans-serif" font-size="22" fill="rgba(255,255,255,.92)" font-weight="800">مطعم روّق</text>
  <text x="906" y="598" text-anchor="end" font-family="Cairo, Arial, sans-serif" font-size="14" fill="rgba(255,255,255,.70)">قائمة + حجوزات</text>
</svg>